/* XPM */
static char *_de30e120a1c431fc9078f8dd9868420J8W5ih4bIEWQsOhW[] = {
/* columns rows colors chars-per-pixel */
"32 32 67 1 ",
"  c #323849",
". c #323C4B",
"X c #333B4C",
"o c #333E4D",
"O c #33414F",
"+ c #34404F",
"@ c #334150",
"# c #344351",
"$ c #334552",
"% c #344653",
"& c #344754",
"* c #344854",
"= c #354C57",
"- c #354C58",
"; c #35505A",
": c #36525C",
"> c #36565E",
", c #37585F",
"< c #375B62",
"1 c #375D63",
"2 c #375E64",
"3 c #385C63",
"4 c #385D63",
"5 c #385E64",
"6 c #386066",
"7 c #386368",
"8 c #38676A",
"9 c #396B6D",
"0 c #396D6E",
"q c #3A7172",
"w c #3B7776",
"e c #3C7676",
"r c #3B7977",
"t c #3C7977",
"y c #3B7B79",
"u c #3C7A78",
"i c #3B7E7A",
"p c #3D7F7B",
"a c #3C7F7C",
"s c #3C827D",
"d c #3D847E",
"f c #3D8480",
"g c #3D8983",
"h c #3F8B84",
"j c #3E8D85",
"k c #3F9087",
"l c #3F9288",
"z c #3F958B",
"x c #3F968C",
"c c #3F998E",
"v c #40928A",
"b c #40958B",
"n c #41978D",
"m c #40988D",
"M c #409C8F",
"N c #419B90",
"B c #419D91",
"V c #41A193",
"C c #41A295",
"Z c #42A797",
"A c #43A799",
"S c #42AB9A",
"D c #42AC9B",
"F c #43AF9E",
"G c #44AE9D",
"H c #43B09E",
"J c #44B19F",
/* pixels */
"                                ",
"             oooooooX           ",
"          oO%%&****&$Oo         ",
"        .O$*=-;;;;;--*%#o       ",
"       o%*-;:>><<<>>>;-*%O      ",
"      o%*;>,<8pknmvd0<>;-*@     ",
"     o%-;><0xJFFFFGHHBw<:-*@    ",
"    o%-:<4dJFFFSSDSDFJHj<>-*O   ",
"   o#*;>1gFDSSSSSSSSSFFFn<:-%o  ",
"   O*->1sFFSSZmkgjjbVSDFHl<;*@  ",
"   $=:<9GFSSBjfppppsgzSSFJy>-&o ",
"  o&;>5lFSSMgauwwwwrpdbSFFC<:*# ",
"  @*:<7FDSZhptwwwwwwwpdmSFHw>-%o",
"  %->4yFSSnstwwwwwwwwrpjSDFj<-&o",
" o%->5gDSSjpwwwwwewwwwyfBSFN<;*O",
" o%->2jDSZgywwwwwwwwwwrsmSFC<;*O",
" o%-<2jFSZguwwwwwwwewwwsmSFC<:*O",
" o%->2gDSSgpwwwwwwwwwwrsNSFm<:*O",
"  $->1yFSSkawwwwwwwwwwugCDFj<;*o",
"  @=><8DSScfuwwwwwwwwrslSFHw>;&o",
"  #*;<6lFSSksywwwwwwrihVSFC1>-% ",
"  o&->10DSSCjspurwrusgmSFFp<;*@ ",
"   #*:<2sDSSAzgssssfjBSSFl1>-&o ",
"   o*->16gFSSSCmblmBSSFFn2<;*@  ",
"    @*;>16dFDSSSSSSSSDFk2<:-%o  ",
"    o%*;>16qzFDDSSDFFBu5<:-&O   ",
"     o%=;><160skxmlfq5<>:-*O    ",
"      o%*-:><1125221<<>;-&#     ",
"       o#*=;;>>><<>>:;-*%O      ",
"         +%**=--;;--=*%@o       ",
"           o@%%&&&&%#Oo         ",
"             Xooooo             "
};
