/* XPM */
static char *ed4646f1512e40fbb8b568bfcb1848eb6lXVunPpVbmEx75e[] = {
/* columns rows colors chars-per-pixel */
"32 32 2 1 ",
"  c #323849",
". c #92B3F7",
/* pixels */
"                                ",
"                                ",
"  ... ..                        ",
"  ..                            ",
"  .                             ",
"                                ",
"  .                             ",
"  .                             ",
"                                ",
"                                ",
"    ......  ..  ..  ..  ......  ",
"    ......  ..  ..  ..  ......  ",
"    ..      ......        ..    ",
"    ..       ....   ..    ..    ",
"    ....      ..    ..    ..    ",
"    ....      ..    ..    ..    ",
"    ..       ....   ..    ..    ",
"    ..      ......  ..    ..    ",
"    ......  ..  ..  ..    ..    ",
"    ......  ..  ..  ..    ..    ",
"                                ",
"                                ",
"                                ",
"                                ",
"                             .  ",
"                             .  ",
"                                ",
"                             .  ",
"                            ..  ",
"                        .. ...  ",
"                                ",
"                                "
};
