/* XPM */
static char *_a95f5b106b94273b64d87bae57ccfbdZBWGjVyGHZi22FFJ[] = {
/* columns rows colors chars-per-pixel */
"32 32 3 1 ",
"  c #323849",
". c #92F79B",
"X c #92B3F7",
/* pixels */
"                                ",
"                                ",
"  XXX XX .                      ",
"  XX                            ",
"  X    . . .                    ",
"     . . . . .                  ",
"  X    . . .                    ",
"  X .... . ....                 ",
"                                ",
"                                ",
"    XXXXXX  XX  XX  XX  XXXXXX  ",
"    X.....  XX  XX  ..  ..XX..  ",
"    X.      .XXXX.        XX    ",
"    X.       .XX.   XX    XX    ",
"    XXXX      XX    XX    XX    ",
"    X...      XX    XX    XX    ",
"    X.       XXXX   XX    XX    ",
"    X.      XX..XX  XX    XX    ",
"    XXXXXX  XX  XX  XX    XX    ",
"    ......  ..  ..  ..    ..    ",
"                             .  ",
"                             .  ",
"                      . .. ...  ",
"                                ",
"  ... ... .. ... .... . .... X  ",
"  . . . . .  . .    . . .    X  ",
"  . . ... .. . .  . . . . .     ",
"  . . .   .  . .    . . .    X  ",
"  ... .   .. . .            XX  ",
"                      . XX XXX  ",
"                                ",
"                                "
};
