/* XPM */
static char *_d30c4cc551e4fd6d52a1bdb416466d2uVGPnYsskhTeWHXR[] = {
/* columns rows colors chars-per-pixel */
"32 32 2 1 ",
"  c #323849",
". c #355CC6",
/* pixels */
"                                ",
"                                ",
"                                ",
"                                ",
"                                ",
"    ....                        ",
"    ......                      ",
"    ........                    ",
"    ..........                  ",
"     ...........                ",
"      ...  .......              ",
"      ...    .......            ",
"      ....     .......          ",
"      .....      .......        ",
"      ......       .......      ",
"      .......        .......    ",
"      .......        .......    ",
"      ......       .......      ",
"      .....      .......        ",
"      ....     .......          ",
"      ...    .......            ",
"      ...  .......              ",
"     ...........                ",
"    ..........                  ",
"    ........                    ",
"    ......                      ",
"    ....                        ",
"                                ",
"                                ",
"                                ",
"                                ",
"                                "
};
