/* XPM */
static char *_113e25e3c01471480790f78f0c1629eZvM3yqMn9V1InFOZ[] = {
/* columns rows colors chars-per-pixel */
"32 32 2 1 ",
"  c #323849",
". c #355CC6",
/* pixels */
"                                ",
"                                ",
"                                ",
"                                ",
"                                ",
"                        ....    ",
"                      ......    ",
"                    ........    ",
"                  ..........    ",
"                ...........     ",
"              .......  ...      ",
"            .......    ...      ",
"          .......     ....      ",
"        .......      .....      ",
"      .......       ......      ",
"    .......        .......      ",
"    .......        .......      ",
"      .......       ......      ",
"        .......      .....      ",
"          .......     ....      ",
"            .......    ...      ",
"              .......  ...      ",
"                ...........     ",
"                  ..........    ",
"                    ........    ",
"                      ......    ",
"                        ....    ",
"                                ",
"                                ",
"                                ",
"                                ",
"                                "
};
