/* XPM */
static char *_c3f989ab54f440ac5f03ba562727169BSVLRXlgrAyIwv4J[] = {
/* columns rows colors chars-per-pixel */
"32 32 2 1 ",
"  c #323849",
". c #355CC6",
/* pixels */
"                                ",
"                                ",
"                                ",
"                                ",
"     ....              ....     ",
"     .....            .....     ",
"     ......................     ",
"     ......................     ",
"      ....................      ",
"      ....  ........  ....      ",
"       ...   ......   ...       ",
"       ....   ....   ....       ",
"        ...    ..    ...        ",
"        ....        ....        ",
"         ...        ...         ",
"         ....      ....         ",
"          ...      ...          ",
"          ....    ....          ",
"           ...    ...           ",
"           ....  ....           ",
"            ...  ...            ",
"            ........            ",
"             ......             ",
"             ......             ",
"              ....              ",
"              ....              ",
"               ..               ",
"               ..               ",
"                                ",
"                                ",
"                                ",
"                                "
};
