/* XPM */
static char *_c18f1d8d1e0447ad84df459c4569965i70o2sTkJuhgWUO8[] = {
/* columns rows colors chars-per-pixel */
"32 32 2 1 ",
"  c #323849",
". c #355CC6",
/* pixels */
"                                ",
"                                ",
"                                ",
"                                ",
"               ..               ",
"               ..               ",
"              ....              ",
"              ....              ",
"             ......             ",
"             ......             ",
"            ........            ",
"            ...  ...            ",
"           ....  ....           ",
"           ...    ...           ",
"          ....    ....          ",
"          ...      ...          ",
"         ....      ....         ",
"         ...        ...         ",
"        ....        ....        ",
"        ...    ..    ...        ",
"       ....   ....   ....       ",
"       ...   ......   ...       ",
"      ....  ........  ....      ",
"      ....................      ",
"     ......................     ",
"     ......................     ",
"     .....            .....     ",
"     ....              ....     ",
"                                ",
"                                ",
"                                ",
"                                "
};
