/* XPM */
static char *bffd51b55da3402c853fe46fef257832mcWNYvTAxPYO5AjW[] = {
/* columns rows colors chars-per-pixel */
"32 32 2 1 ",
"  c None",
". c #667BB3",
/* pixels */
"                                ",
" .............................. ",
" .............................. ",
" ..                          .. ",
" .. ....             ......  .. ",
" .. .....            ....... .. ",
" .. ......           ....... .. ",
" .. .......             .... .. ",
" ..  .......             ... .. ",
" ..   .......            ... .. ",
" ..    .......           ... .. ",
" ..     .......              .. ",
" ..      .......             .. ",
" ..       .......            .. ",
" ..        .......           .. ",
" ..         .......          .. ",
" ..          .......         .. ",
" ..           .......        .. ",
" ..            .......       .. ",
" ..             .......      .. ",
" ..              .......     .. ",
" .. ...           .......    .. ",
" .. ...            .......   .. ",
" .. ...             .......  .. ",
" .. ....             ....... .. ",
" .. .......           ...... .. ",
" .. .......            ..... .. ",
" ..  ......             .... .. ",
" ..                          .. ",
" .............................. ",
" .............................. ",
"                                "
};
